<?xml version="1.0" encoding="UTF-8"?>
<svg version="1.1" xmlns="http://www.w3.org/2000/svg" width="512" height="512">
<path d="M0 0 C1.01790619 0.00215515 2.03581238 0.0043103 3.08456421 0.00653076 C17.69363523 0.05620146 32.02575853 0.30709809 46.375 3.3125 C47.34985352 3.51117676 48.32470703 3.70985352 49.32910156 3.91455078 C97.7109774 14.03517194 141.69928269 35.9516877 177.375 70.3125 C178.3640332 71.26068604 178.3640332 71.26068604 179.37304688 72.22802734 C188.86130305 81.37247479 197.6012044 90.66984009 205.375 101.3125 C206.23306152 102.46355017 207.09113451 103.61459177 207.94921875 104.765625 C213.98736829 112.95680614 219.34595521 121.47054105 224.375 130.3125 C224.73948242 130.94430176 225.10396484 131.57610352 225.47949219 132.22705078 C247.08534998 169.97532572 256.85198095 212.74189997 256.6875 255.9375 C256.68534485 256.95540619 256.6831897 257.97331238 256.68096924 259.02206421 C256.63129854 273.63113523 256.38040191 287.96325853 253.375 302.3125 C253.07698486 303.77478027 253.07698486 303.77478027 252.77294922 305.26660156 C242.65232806 353.6484774 220.7358123 397.63678269 186.375 433.3125 C185.74287598 433.97185547 185.11075195 434.63121094 184.45947266 435.31054688 C175.31502521 444.79880305 166.01765991 453.5387044 155.375 461.3125 C154.22394983 462.17056152 153.07290823 463.02863451 151.921875 463.88671875 C143.73224019 469.92427396 135.22961724 475.30707302 126.375 480.3125 C125.66778809 480.7146875 124.96057617 481.116875 124.23193359 481.53125 C101.09654164 494.5566741 75.92537591 503.30551461 49.9375 508.625 C49.21860596 508.77235596 48.49971191 508.91971191 47.7590332 509.0715332 C33.08339502 511.86090125 18.55831162 512.66142619 3.64770508 512.62817383 C0.70811513 512.6250221 -2.2304558 512.64854926 -5.16992188 512.67382812 C-18.54306192 512.71848737 -31.43916711 511.51301542 -44.625 509.3125 C-46.33055054 509.03031616 -46.33055054 509.03031616 -48.07055664 508.74243164 C-91.33802759 500.97044532 -132.38793216 480.98345309 -165.625 452.3125 C-166.37007813 451.67828125 -167.11515625 451.0440625 -167.8828125 450.390625 C-181.38779833 438.57948485 -194.05918743 425.82889772 -204.625 411.3125 C-205.48149066 410.16255169 -206.33826433 409.01281411 -207.1953125 407.86328125 C-213.23534209 399.67315742 -218.61867614 391.16870382 -223.625 382.3125 C-224.0271875 381.60528809 -224.429375 380.89807617 -224.84375 380.16943359 C-237.8691741 357.03404164 -246.61801461 331.86287591 -251.9375 305.875 C-252.08485596 305.15610596 -252.23221191 304.43721191 -252.3840332 303.6965332 C-255.35789088 288.05024391 -255.99800362 272.57681954 -255.9375 256.6875 C-255.93534485 255.66959381 -255.9331897 254.65168762 -255.93096924 253.60293579 C-255.88129854 238.99386477 -255.63040191 224.66174147 -252.625 210.3125 C-252.42632324 209.33764648 -252.22764648 208.36279297 -252.02294922 207.35839844 C-241.90232806 158.9765226 -219.9858123 114.98821731 -185.625 79.3125 C-184.99287598 78.65314453 -184.36075195 77.99378906 -183.70947266 77.31445312 C-174.56502521 67.82619695 -165.26765991 59.0862956 -154.625 51.3125 C-153.47394983 50.45443848 -152.32290823 49.59636549 -151.171875 48.73828125 C-142.98224019 42.70072604 -134.47961724 37.31792698 -125.625 32.3125 C-124.91778809 31.9103125 -124.21057617 31.508125 -123.48193359 31.09375 C-100.34654164 18.0683259 -75.17537591 9.31948539 -49.1875 4 C-48.46860596 3.85264404 -47.74971191 3.70528809 -47.0090332 3.5534668 C-31.36274391 0.57960912 -15.88931954 -0.06050362 0 0 Z " fill="#FEFEFE" transform="translate(255.625,-0.3125)"/>
<path d="M0 0 C1.04865234 -0.00379669 2.09730469 -0.00759338 3.17773438 -0.01150513 C6.61798778 -0.01886705 10.05738115 0.00242024 13.49755859 0.02490234 C15.91116233 0.02729057 18.32476794 0.02819129 20.7383728 0.02767944 C25.79021906 0.03080061 30.84178018 0.04730695 35.89355469 0.07421875 C42.32856783 0.10808724 48.7632667 0.11584976 55.19835854 0.11432838 C60.18304373 0.11487587 65.16766195 0.12590512 70.15232468 0.14033127 C72.5226834 0.14664153 74.89304963 0.15062444 77.26341629 0.15211868 C103.3244682 0.1865217 127.58182905 1.21210323 147.63427734 20.00537109 C158.94471772 31.76008409 165.41093826 45.53425397 165.27099609 61.86083984 C165.27873047 62.75544922 165.28646484 63.65005859 165.29443359 64.57177734 C165.24754306 80.70211937 159.34564764 93.8691846 148.14990234 105.41552734 C142.75636337 110.46145777 136.46816493 113.95064227 130.02099609 117.48583984 C132.38734568 119.85218943 134.33668971 120.48388696 137.45849609 121.67333984 C154.83534836 128.78205214 166.60698272 139.98542051 174.19677734 157.12255859 C176.69466847 164.28475826 177.37835494 170.6904526 177.33349609 178.23583984 C177.32612427 179.69836182 177.32612427 179.69836182 177.31860352 181.19042969 C177.20254689 188.32880495 176.48188005 194.74082592 174.02099609 201.48583984 C173.52792969 202.93410156 173.52792969 202.93410156 173.02490234 204.41162109 C166.49130189 221.8420915 154.32500335 234.3086531 137.80224609 242.59912109 C132.49218103 244.95409858 126.97189097 246.35587958 121.33349609 247.67333984 C120.63998047 247.84043457 119.94646484 248.0075293 119.23193359 248.1796875 C103.98530474 251.52608818 87.79216796 250.67795312 72.28271484 250.72412109 C71.1174357 250.72819662 69.95215656 250.73227215 68.75156593 250.73647118 C62.59976005 250.75718301 56.44797557 250.77155604 50.29614258 250.78100586 C43.96709915 250.79212466 37.63840198 250.82663007 31.30948162 250.86617756 C26.41343039 250.89234931 21.51746245 250.90069752 16.62134743 250.90428734 C14.28786657 250.90914058 11.95438912 250.92071826 9.6209774 250.93932533 C6.35779498 250.96376029 3.09552191 250.96274511 -0.16772461 250.95581055 C-1.5932666 250.97502563 -1.5932666 250.97502563 -3.04760742 250.99462891 C-10.54657767 250.93682296 -17.32674706 249.25917959 -23.38134766 244.66162109 C-23.88794922 244.04673828 -24.39455078 243.43185547 -24.91650391 242.79833984 C-25.70347656 241.89535156 -25.70347656 241.89535156 -26.50634766 240.97412109 C-30.3151793 234.53850901 -31.42385558 227.98755157 -31.35995483 220.61231995 C-31.36463481 219.76639044 -31.36931478 218.92046094 -31.37413657 218.04889721 C-31.38601786 215.23938428 -31.37665638 212.43036538 -31.3671875 209.62084961 C-31.37125628 207.59636146 -31.37659988 205.57187554 -31.38311768 203.5473938 C-31.39676138 198.06596949 -31.39150451 192.58471511 -31.38198042 187.10328794 C-31.37436754 181.35709769 -31.38143405 175.61092167 -31.38613892 169.86473083 C-31.39159216 160.215214 -31.3844166 150.56576612 -31.37011719 140.91625977 C-31.35379617 129.7741644 -31.35907699 118.63223377 -31.3755964 107.49014241 C-31.38922906 97.9102518 -31.39112208 88.33041067 -31.3832804 78.75051349 C-31.37861308 73.03485124 -31.37795304 67.31926631 -31.38788986 61.60360909 C-31.39658295 56.22811966 -31.39049478 50.85284171 -31.37320709 45.47737503 C-31.36925456 43.50941379 -31.37035505 41.54143462 -31.37699509 39.57348061 C-31.45081598 15.46394778 -31.45081598 15.46394778 -24.91650391 8.11083984 C-17.91553131 1.09442551 -9.5502185 -0.11094155 0 0 Z " fill="#262B40" transform="translate(199.97900390625,130.51416015625)"/>
<path d="M0 0 C1.01790619 0.00215515 2.03581238 0.0043103 3.08456421 0.00653076 C17.69363523 0.05620146 32.02575853 0.30709809 46.375 3.3125 C47.34985352 3.51117676 48.32470703 3.70985352 49.32910156 3.91455078 C97.7109774 14.03517194 141.69928269 35.9516877 177.375 70.3125 C178.3640332 71.26068604 178.3640332 71.26068604 179.37304688 72.22802734 C188.86130305 81.37247479 197.6012044 90.66984009 205.375 101.3125 C206.23306152 102.46355017 207.09113451 103.61459177 207.94921875 104.765625 C213.98736829 112.95680614 219.34595521 121.47054105 224.375 130.3125 C224.73948242 130.94430176 225.10396484 131.57610352 225.47949219 132.22705078 C247.08534998 169.97532572 256.85198095 212.74189997 256.6875 255.9375 C256.68534485 256.95540619 256.6831897 257.97331238 256.68096924 259.02206421 C256.63129854 273.63113523 256.38040191 287.96325853 253.375 302.3125 C253.07698486 303.77478027 253.07698486 303.77478027 252.77294922 305.26660156 C242.65232806 353.6484774 220.7358123 397.63678269 186.375 433.3125 C185.74287598 433.97185547 185.11075195 434.63121094 184.45947266 435.31054688 C175.31502521 444.79880305 166.01765991 453.5387044 155.375 461.3125 C154.22394983 462.17056152 153.07290823 463.02863451 151.921875 463.88671875 C143.73224019 469.92427396 135.22961724 475.30707302 126.375 480.3125 C125.66778809 480.7146875 124.96057617 481.116875 124.23193359 481.53125 C101.09654164 494.5566741 75.92537591 503.30551461 49.9375 508.625 C49.21860596 508.77235596 48.49971191 508.91971191 47.7590332 509.0715332 C33.08339502 511.86090125 18.55831162 512.66142619 3.64770508 512.62817383 C0.70811513 512.6250221 -2.2304558 512.64854926 -5.16992188 512.67382812 C-18.54306192 512.71848737 -31.43916711 511.51301542 -44.625 509.3125 C-46.33055054 509.03031616 -46.33055054 509.03031616 -48.07055664 508.74243164 C-91.33802759 500.97044532 -132.38793216 480.98345309 -165.625 452.3125 C-166.37007813 451.67828125 -167.11515625 451.0440625 -167.8828125 450.390625 C-181.38779833 438.57948485 -194.05918743 425.82889772 -204.625 411.3125 C-205.48149066 410.16255169 -206.33826433 409.01281411 -207.1953125 407.86328125 C-213.23534209 399.67315742 -218.61867614 391.16870382 -223.625 382.3125 C-224.0271875 381.60528809 -224.429375 380.89807617 -224.84375 380.16943359 C-237.8691741 357.03404164 -246.61801461 331.86287591 -251.9375 305.875 C-252.08485596 305.15610596 -252.23221191 304.43721191 -252.3840332 303.6965332 C-255.35789088 288.05024391 -255.99800362 272.57681954 -255.9375 256.6875 C-255.93534485 255.66959381 -255.9331897 254.65168762 -255.93096924 253.60293579 C-255.88129854 238.99386477 -255.63040191 224.66174147 -252.625 210.3125 C-252.42632324 209.33764648 -252.22764648 208.36279297 -252.02294922 207.35839844 C-241.90232806 158.9765226 -219.9858123 114.98821731 -185.625 79.3125 C-184.99287598 78.65314453 -184.36075195 77.99378906 -183.70947266 77.31445312 C-174.56502521 67.82619695 -165.26765991 59.0862956 -154.625 51.3125 C-153.47394983 50.45443848 -152.32290823 49.59636549 -151.171875 48.73828125 C-142.98224019 42.70072604 -134.47961724 37.31792698 -125.625 32.3125 C-124.91778809 31.9103125 -124.21057617 31.508125 -123.48193359 31.09375 C-100.34654164 18.0683259 -75.17537591 9.31948539 -49.1875 4 C-48.46860596 3.85264404 -47.74971191 3.70528809 -47.0090332 3.5534668 C-31.36274391 0.57960912 -15.88931954 -0.06050362 0 0 Z M-102.625 48.3125 C-103.37265625 48.67601563 -104.1203125 49.03953125 -104.890625 49.4140625 C-125.97367292 59.8060613 -144.68698073 74.099192 -161.625 90.3125 C-162.12241699 90.78268555 -162.61983398 91.25287109 -163.13232422 91.73730469 C-171.13640243 99.33256554 -178.02155917 107.48344533 -184.625 116.3125 C-185.34558594 117.26125 -186.06617188 118.21 -186.80859375 119.1875 C-211.02755009 151.66828356 -225.02978448 189.34198917 -230.35864258 229.32958984 C-230.61072246 231.20621019 -230.89807326 233.07799446 -231.1875 234.94921875 C-235.36265059 269.1502768 -229.33502626 306.5542022 -216.625 338.3125 C-216.31836426 339.09737793 -216.01172852 339.88225586 -215.69580078 340.69091797 C-208.43309041 359.18842759 -199.3960274 376.29308867 -187.625 392.3125 C-187.20750488 392.88693848 -186.79000977 393.46137695 -186.35986328 394.05322266 C-180.03926222 402.70550122 -173.04140328 410.58945697 -165.625 418.3125 C-165.13773437 418.82699707 -164.65046875 419.34149414 -164.1484375 419.87158203 C-156.56741916 427.85546865 -148.45298427 434.74572727 -139.625 441.3125 C-139.06055176 441.73772949 -138.49610352 442.16295898 -137.91455078 442.60107422 C-90.20432317 478.41472559 -28.5476432 495.01161767 30.71728516 486.72363281 C45.58219064 484.4241196 60.19682242 481.3691472 74.375 476.3125 C75.13603027 476.05162598 75.89706055 475.79075195 76.68115234 475.52197266 C96.27431292 468.77014381 115.65792896 459.66352037 132.375 447.3125 C133.61949847 446.4253698 134.86431425 445.53868464 136.109375 444.65234375 C145.91081856 437.57978534 154.72572063 429.73888621 163.375 421.3125 C164.3134375 420.41402344 165.251875 419.51554687 166.21875 418.58984375 C172.09784515 412.86498412 177.35158014 406.79758383 182.375 400.3125 C182.79362305 399.77560547 183.21224609 399.23871094 183.64355469 398.68554688 C196.12757418 382.56459658 206.33165216 365.04012628 214.375 346.3125 C214.9006958 345.08974365 214.9006958 345.08974365 215.43701172 343.84228516 C238.34981027 289.53398763 238.35394045 225.72500238 216.49316406 171.109375 C209.03489544 153.05168334 199.94595395 136.05962763 188.375 120.3125 C187.74875732 119.45084229 187.74875732 119.45084229 187.10986328 118.57177734 C180.78926222 109.91949878 173.79140328 102.03554303 166.375 94.3125 C165.88773437 93.79800293 165.40046875 93.28350586 164.8984375 92.75341797 C157.31741916 84.76953135 149.20298427 77.87927273 140.375 71.3125 C139.52832764 70.67465576 139.52832764 70.67465576 138.66455078 70.02392578 C101.95927658 42.47113554 56.44944411 25.37115356 10.375 24.3125 C9.5382373 24.29203613 8.70147461 24.27157227 7.83935547 24.25048828 C-30.89822474 23.42744224 -67.76462694 31.34404026 -102.625 48.3125 Z " fill="#252A3F" transform="translate(255.625,-0.3125)"/>
<path d="M0 0 C14.85 -0.061875 14.85 -0.061875 30 -0.125 C33.09117187 -0.14320801 36.18234375 -0.16141602 39.3671875 -0.18017578 C83.94901691 -0.33685076 83.94901691 -0.33685076 97.58203125 12.48828125 C101.71774518 16.86549672 103.45066744 21.24852086 105 27 C105.495 28.485 105.495 28.485 106 30 C106.83467062 42.01537473 104.37402483 52.28821998 96.44311523 61.56835938 C94.07764017 63.91502589 91.41454749 65.23453825 88.4375 66.6875 C86.76494141 67.52861328 86.76494141 67.52861328 85.05859375 68.38671875 C74.50499419 72.87663435 64.0393007 73.41766603 52.734375 73.29296875 C51.37646862 73.28854411 50.01855708 73.2854921 48.66064453 73.28381348 C43.69035039 73.26824449 38.7201666 73.22636167 33.75 73.1875 C17.04375 73.0946875 17.04375 73.0946875 0 73 C0 48.91 0 24.82 0 0 Z " fill="#FEFEFE" transform="translate(220,270)"/>
<path d="M0 0 C12.87 -0.061875 12.87 -0.061875 26 -0.125 C28.67351562 -0.14320801 31.34703125 -0.16141602 34.1015625 -0.18017578 C76.89165751 -0.35138166 76.89165751 -0.35138166 89.31640625 10.828125 C94.05940874 16.94670826 95.73145986 22.55670974 95.625 30.25 C95.61243164 31.49571777 95.61243164 31.49571777 95.59960938 32.76660156 C95.25645955 42.16671654 92.0479193 49.42315124 85.25 56 C74.29309285 64.57315254 61.696696 64.14907045 48.4375 64.09765625 C46.59188477 64.09614563 46.59188477 64.09614563 44.70898438 64.09460449 C40.13931335 64.08939633 35.56965568 64.07543515 31 64.0625 C20.77 64.041875 10.54 64.02125 0 64 C0 42.88 0 21.76 0 0 Z " fill="#FEFEFE" transform="translate(220,169)"/>
</svg>
